<?xml version="1.0" encoding="utf-8"?>
<!-- Generator: Adobe Illustrator 26.5.0, SVG Export Plug-In . SVG Version: 6.00 Build 0)  -->
<svg version="1.1" id="Layer_1" xmlns="http://www.w3.org/2000/svg" xmlns:xlink="http://www.w3.org/1999/xlink" x="0px" y="0px"
	 viewBox="0 0 16 16" style="enable-background:new 0 0 16 16;" xml:space="preserve">
<style type="text/css">
	.st0{fill:#1C1919;}
</style>
<g>
	<path class="st0" d="M8.7,1.3H7.3c-0.2,0-0.4-0.2-0.4-0.4c0,0,0,0,0,0c0-0.2,0.2-0.4,0.4-0.4h1.3c0.2,0,0.4,0.2,0.4,0.4
		c0,0,0,0,0,0C9.1,1.1,8.9,1.3,8.7,1.3z"/>
	<path class="st0" d="M8,15.5c-3.5,0.1-6.5-2.6-6.6-6.2c0-0.1,0-0.3,0-0.4c0-3.7,3-6.7,6.7-6.7c3.5-0.1,6.5,2.7,6.6,6.2
		c0,0.1,0,0.3,0,0.4C14.6,12.5,11.6,15.5,8,15.5z M8,3C4.8,3.1,2.2,5.7,2.1,8.9c-0.1,3.1,2.2,5.7,5.3,5.8c0.2,0,0.3,0,0.5,0
		c3.2,0,5.9-2.6,5.9-5.9C14,5.7,11.5,3.1,8.4,3C8.3,3,8.1,3,8,3L8,3z"/>
	<path class="st0" d="M9.9,4.7c0,0-0.1,0-0.1,0c0,0-0.1,0-0.1,0.1L7.1,8.4l0,0.1L6,12.7c0,0.1,0,0.2,0.1,0.2c0,0,0.1,0,0.1,0
		c0,0,0.1,0,0.1-0.1l2.6-3.6c0,0,0,0,0-0.1L10,4.9C10,4.8,10,4.8,9.9,4.7z"/>
</g>
</svg>
